<mxfile host="drawio-plugin" modified="2023-03-30T02:01:06.597Z" agent="5.0 (X11; Linux aarch64) AppleWebKit/537.36 (KHTML, like Gecko) Chrome/104.0.5112.102 Safari/537.36" etag="nuNGbA1Yszkmbn6QqBuU" version="20.5.3" type="embed"><diagram id="23iRSUPoRavnBvh4doch" name="Page-1"><mxGraphModel dx="3517" dy="841" grid="1" gridSize="10" guides="1" tooltips="1" connect="1" arrows="1" fold="1" page="1" pageScale="1" pageWidth="827" pageHeight="1169" math="0" shadow="0"><root><mxCell id="0"/><mxCell id="1" parent="0"/><mxCell id="3" value="&lt;br&gt;«interface»&lt;br&gt;&lt;b&gt;BeanFactory&lt;br&gt;&lt;br&gt;&lt;/b&gt;" style="html=1;" parent="1" vertex="1"><mxGeometry x="240" y="70" width="110" height="50" as="geometry"/></mxCell><mxCell id="12" value="&lt;br&gt;«abstract class»&lt;br&gt;&lt;b&gt;AbstractBeanFactory&lt;br&gt;&lt;br&gt;&lt;/b&gt;" style="html=1;" parent="1" vertex="1"><mxGeometry x="320" y="540" width="440" height="50" as="geometry"/></mxCell><mxCell id="15" value="«abstract class»&lt;br&gt;&lt;b&gt;AbstractAutowireCapableBeanFactory&lt;/b&gt;" style="html=1;" parent="1" vertex="1"><mxGeometry x="320" y="660" width="440" height="50" as="geometry"/></mxCell><mxCell id="19" value="«interface»&lt;br&gt;&lt;b&gt;BeanDefinitionRegistry&lt;/b&gt;" style="html=1;" parent="1" vertex="1"><mxGeometry x="-485" y="380" width="160" height="50" as="geometry"/></mxCell><mxCell id="20" value="«class»&lt;br&gt;&lt;b&gt;DefaultListableBeanFactory&lt;/b&gt;" style="html=1;" parent="1" vertex="1"><mxGeometry x="295" y="790" width="490" height="50" as="geometry"/></mxCell><mxCell id="21" value="«interface»&lt;br&gt;&lt;b&gt;SingletonBeanRegistry&lt;/b&gt;" style="html=1;" parent="1" vertex="1"><mxGeometry x="640" y="120" width="160" height="50" as="geometry"/></mxCell><mxCell id="22" value="«class»&lt;br&gt;&lt;b&gt;DefaultSingletonBeanRegistry&lt;/b&gt;" style="html=1;" parent="1" vertex="1"><mxGeometry x="620" y="210" width="200" height="50" as="geometry"/></mxCell><mxCell id="25" value="&lt;br&gt;«class»&lt;br&gt;&lt;b&gt;BeanDefinition&lt;br&gt;&lt;br&gt;&lt;/b&gt;" style="html=1;" parent="1" vertex="1"><mxGeometry x="-480" y="80" width="110" height="50" as="geometry"/></mxCell><object label="" id="27"><mxCell style="endArrow=block;dashed=1;endFill=0;endSize=12;html=1;rounded=0;exitX=0.122;exitY=-0.044;exitDx=0;exitDy=0;exitPerimeter=0;entryX=0.883;entryY=1.004;entryDx=0;entryDy=0;entryPerimeter=0;" parent="1" source="12" target="93" edge="1"><mxGeometry width="160" relative="1" as="geometry"><mxPoint x="390" y="310" as="sourcePoint"/><mxPoint x="610" y="380" as="targetPoint"/></mxGeometry></mxCell></object><mxCell id="28" value="Extends" style="endArrow=block;endSize=16;endFill=0;html=1;rounded=0;entryX=0.5;entryY=1;entryDx=0;entryDy=0;exitX=0.5;exitY=0;exitDx=0;exitDy=0;" parent="1" source="15" target="12" edge="1"><mxGeometry width="160" relative="1" as="geometry"><mxPoint x="389" y="430" as="sourcePoint"/><mxPoint x="505" y="380" as="targetPoint"/></mxGeometry></mxCell><mxCell id="30" value="" style="endArrow=block;dashed=1;endFill=0;endSize=12;html=1;rounded=0;exitX=0.5;exitY=0;exitDx=0;exitDy=0;entryX=0.5;entryY=1;entryDx=0;entryDy=0;" parent="1" source="22" target="21" edge="1"><mxGeometry width="160" relative="1" as="geometry"><mxPoint x="670" y="190" as="sourcePoint"/><mxPoint x="830" y="190" as="targetPoint"/></mxGeometry></mxCell><mxCell id="31" value="" style="endArrow=block;dashed=1;endFill=0;endSize=12;html=1;rounded=0;entryX=0.5;entryY=1;entryDx=0;entryDy=0;exitX=0;exitY=0.5;exitDx=0;exitDy=0;" parent="1" source="20" target="19" edge="1"><mxGeometry width="160" relative="1" as="geometry"><mxPoint x="110" y="530" as="sourcePoint"/><mxPoint x="270" y="390" as="targetPoint"/><Array as="points"><mxPoint x="-405" y="815"/></Array></mxGeometry></mxCell><mxCell id="36" value="&lt;div style=&quot;&quot;&gt;&lt;pre style=&quot;&quot;&gt;&lt;b&gt;&lt;font style=&quot;font-size: 16px;&quot;&gt;注册&lt;/font&gt;&lt;/b&gt;&lt;/pre&gt;&lt;/div&gt;" style="text;html=1;strokeColor=none;fillColor=none;align=center;verticalAlign=middle;whiteSpace=wrap;rounded=0;" parent="1" vertex="1"><mxGeometry x="-435" y="320" width="60" height="30" as="geometry"/></mxCell><mxCell id="37" value="Extends" style="endArrow=block;endSize=16;endFill=0;html=1;rounded=0;entryX=0.5;entryY=1;entryDx=0;entryDy=0;exitX=0.911;exitY=-0.044;exitDx=0;exitDy=0;exitPerimeter=0;" parent="1" source="12" target="22" edge="1"><mxGeometry width="160" relative="1" as="geometry"><mxPoint x="719.8800000000001" y="320" as="sourcePoint"/><mxPoint x="830" y="290" as="targetPoint"/></mxGeometry></mxCell><mxCell id="40" value="&lt;div style=&quot;&quot;&gt;&lt;pre style=&quot;&quot;&gt;&lt;b&gt;&lt;font style=&quot;font-size: 16px;&quot;&gt;获取&lt;/font&gt;&lt;/b&gt;&lt;/pre&gt;&lt;/div&gt;" style="text;html=1;strokeColor=none;fillColor=none;align=center;verticalAlign=middle;whiteSpace=wrap;rounded=0;" parent="1" vertex="1"><mxGeometry x="450" y="20" width="60" height="30" as="geometry"/></mxCell><mxCell id="45" value="&lt;div style=&quot;&quot;&gt;&lt;pre style=&quot;&quot;&gt;&lt;b&gt;&lt;font style=&quot;font-size: 16px;&quot;&gt;定义&lt;/font&gt;&lt;/b&gt;&lt;/pre&gt;&lt;/div&gt;" style="text;html=1;strokeColor=none;fillColor=none;align=center;verticalAlign=middle;whiteSpace=wrap;rounded=0;" parent="1" vertex="1"><mxGeometry x="-455" y="40" width="60" height="30" as="geometry"/></mxCell><mxCell id="46" value="«interface»&lt;br&gt;&lt;b&gt;InstantiationStrategy&lt;/b&gt;" style="html=1;" parent="1" vertex="1"><mxGeometry x="890" y="210" width="450" height="50" as="geometry"/></mxCell><mxCell id="47" value="«class»&lt;br&gt;&lt;b&gt;SimpleInstantiationStrategy&lt;/b&gt;" style="html=1;" parent="1" vertex="1"><mxGeometry x="890" y="320" width="181" height="50" as="geometry"/></mxCell><mxCell id="48" value="«class»&lt;br&gt;&lt;b&gt;CglibSubclassingInstantiationStrategy&lt;/b&gt;" style="html=1;" parent="1" vertex="1"><mxGeometry x="1091" y="320" width="249" height="50" as="geometry"/></mxCell><mxCell id="49" value="" style="endArrow=block;dashed=1;endFill=0;endSize=12;html=1;rounded=0;exitX=0.5;exitY=0;exitDx=0;exitDy=0;" parent="1" source="47" edge="1"><mxGeometry width="160" relative="1" as="geometry"><mxPoint x="1000" y="470" as="sourcePoint"/><mxPoint x="981" y="260" as="targetPoint"/></mxGeometry></mxCell><mxCell id="50" value="" style="endArrow=block;dashed=1;endFill=0;endSize=12;html=1;rounded=0;exitX=0.5;exitY=0;exitDx=0;exitDy=0;" parent="1" edge="1"><mxGeometry width="160" relative="1" as="geometry"><mxPoint x="1215" y="320" as="sourcePoint"/><mxPoint x="1215.5" y="260" as="targetPoint"/></mxGeometry></mxCell><mxCell id="51" value="&lt;div style=&quot;&quot;&gt;&lt;pre style=&quot;&quot;&gt;&lt;div style=&quot;&quot;&gt;&lt;pre style=&quot;&quot;&gt;&lt;b&gt;&lt;font style=&quot;font-size: 16px;&quot;&gt;实例化&lt;/font&gt;&lt;/b&gt;&lt;/pre&gt;&lt;/div&gt;&lt;/pre&gt;&lt;/div&gt;" style="text;html=1;strokeColor=none;fillColor=none;align=center;verticalAlign=middle;whiteSpace=wrap;rounded=0;" parent="1" vertex="1"><mxGeometry x="1060" y="160" width="60" height="30" as="geometry"/></mxCell><mxCell id="52" value="Extends" style="endArrow=block;endSize=16;endFill=0;html=1;rounded=0;entryX=0.5;entryY=1;entryDx=0;entryDy=0;exitX=0.5;exitY=0;exitDx=0;exitDy=0;" parent="1" source="20" edge="1" target="15"><mxGeometry width="160" relative="1" as="geometry"><mxPoint x="529" y="540" as="sourcePoint"/><mxPoint x="529" y="480" as="targetPoint"/></mxGeometry></mxCell><mxCell id="53" value="Use" style="endArrow=open;dashed=1;html=1;rounded=0;fontSize=16;entryX=0.5;entryY=1;entryDx=0;entryDy=0;exitX=1;exitY=0.5;exitDx=0;exitDy=0;" parent="1" target="48" edge="1" source="15"><mxGeometry x="-0.6294" y="-4" width="160" relative="1" as="geometry"><mxPoint x="760" y="454.5" as="sourcePoint"/><mxPoint x="1220" y="380" as="targetPoint"/><Array as="points"><mxPoint x="1216" y="685"/></Array><mxPoint as="offset"/></mxGeometry></mxCell><mxCell id="58" value="" style="endArrow=open;dashed=1;html=1;dashPattern=1 3;strokeWidth=1;rounded=0;fontSize=16;endFill=0;entryX=0.5;entryY=1;entryDx=0;entryDy=0;" parent="1" target="47" edge="1"><mxGeometry width="50" height="50" relative="1" as="geometry"><mxPoint x="980" y="680" as="sourcePoint"/><mxPoint x="980" y="390" as="targetPoint"/></mxGeometry></mxCell><mxCell id="59" value="&lt;br&gt;«class»&lt;br&gt;&lt;b&gt;PropertyValue&lt;br&gt;&lt;br&gt;&lt;/b&gt;" style="html=1;" parent="1" vertex="1"><mxGeometry x="-540" y="150" width="110" height="50" as="geometry"/></mxCell><mxCell id="60" value="&lt;br&gt;«class»&lt;br&gt;&lt;b&gt;PropertyValues&lt;br&gt;&lt;br&gt;&lt;/b&gt;" style="html=1;" parent="1" vertex="1"><mxGeometry x="-410" y="150" width="110" height="50" as="geometry"/></mxCell><mxCell id="62" value="«interface»&lt;br&gt;&lt;b&gt;Resource&lt;/b&gt;" style="html=1;" parent="1" vertex="1"><mxGeometry x="-1555" y="280" width="110" height="50" as="geometry"/></mxCell><mxCell id="63" value="«interface»&lt;br&gt;&lt;b&gt;ResourceLoader&lt;/b&gt;" style="html=1;" parent="1" vertex="1"><mxGeometry x="-1351.25" y="280" width="110" height="50" as="geometry"/></mxCell><mxCell id="64" value="&lt;br&gt;«class»&lt;br&gt;&lt;b&gt;ClassPathResource&lt;br&gt;&lt;br&gt;&lt;/b&gt;" style="html=1;" parent="1" vertex="1"><mxGeometry x="-1740" y="160" width="125" height="50" as="geometry"/></mxCell><mxCell id="65" value="&lt;br&gt;«class»&lt;br&gt;&lt;b&gt;FileSystemResource&lt;br&gt;&lt;br&gt;&lt;/b&gt;" style="html=1;" parent="1" vertex="1"><mxGeometry x="-1740" y="280" width="125" height="50" as="geometry"/></mxCell><mxCell id="66" value="&lt;br&gt;«class»&lt;br&gt;&lt;b&gt;UrlResource&lt;br&gt;&lt;br&gt;&lt;/b&gt;" style="html=1;" parent="1" vertex="1"><mxGeometry x="-1740" y="390" width="125" height="50" as="geometry"/></mxCell><mxCell id="68" value="" style="endArrow=block;dashed=1;endFill=0;endSize=12;html=1;rounded=0;exitX=1;exitY=0.5;exitDx=0;exitDy=0;entryX=0;entryY=0.5;entryDx=0;entryDy=0;" edge="1" parent="1" source="65" target="62"><mxGeometry width="160" relative="1" as="geometry"><mxPoint x="-1647.6799999999998" y="280" as="sourcePoint"/><mxPoint x="-1514.98" y="233" as="targetPoint"/></mxGeometry></mxCell><mxCell id="70" value="" style="endArrow=none;dashed=1;html=1;rounded=0;entryX=1;entryY=0.5;entryDx=0;entryDy=0;exitX=1;exitY=0.5;exitDx=0;exitDy=0;" edge="1" parent="1" source="64" target="66"><mxGeometry width="50" height="50" relative="1" as="geometry"><mxPoint x="-1670" y="270" as="sourcePoint"/><mxPoint x="-1375" y="250" as="targetPoint"/><Array as="points"><mxPoint x="-1585" y="185"/><mxPoint x="-1585" y="300"/><mxPoint x="-1585" y="415"/></Array></mxGeometry></mxCell><mxCell id="71" value="&lt;br&gt;«class»&lt;br&gt;&lt;b&gt;DefaultResourceLoader&lt;br&gt;&lt;br&gt;&lt;/b&gt;" style="html=1;" vertex="1" parent="1"><mxGeometry x="-1373.75" y="390" width="157.5" height="50" as="geometry"/></mxCell><mxCell id="72" value="" style="endArrow=block;dashed=1;endFill=0;endSize=12;html=1;rounded=0;exitX=0.5;exitY=0;exitDx=0;exitDy=0;entryX=0.5;entryY=1;entryDx=0;entryDy=0;" edge="1" parent="1" target="63"><mxGeometry width="160" relative="1" as="geometry"><mxPoint x="-1295.5" y="390" as="sourcePoint"/><mxPoint x="-1295.5" y="340" as="targetPoint"/></mxGeometry></mxCell><mxCell id="73" value="«interface»&lt;br&gt;&lt;b&gt;BeanDefinitionReader&lt;/b&gt;" style="html=1;" vertex="1" parent="1"><mxGeometry x="-1071.25" y="170" width="140" height="50" as="geometry"/></mxCell><mxCell id="74" value="«interface»&lt;br&gt;&lt;b&gt;AbstractBeanDefinitionReader&lt;/b&gt;" style="html=1;" vertex="1" parent="1"><mxGeometry x="-1101.25" y="280" width="200" height="50" as="geometry"/></mxCell><mxCell id="75" value="&lt;br&gt;«class»&lt;br&gt;&lt;b&gt;XmlBeanDefinitionReader&lt;br&gt;&lt;/b&gt;" style="html=1;" vertex="1" parent="1"><mxGeometry x="-1137.5" y="390" width="272.5" height="50" as="geometry"/></mxCell><mxCell id="76" value="Use" style="endArrow=open;endSize=12;dashed=1;html=1;rounded=0;exitX=1;exitY=0.5;exitDx=0;exitDy=0;entryX=0;entryY=0.5;entryDx=0;entryDy=0;" edge="1" parent="1" source="62" target="63"><mxGeometry width="160" relative="1" as="geometry"><mxPoint x="-1365" y="300" as="sourcePoint"/><mxPoint x="-1365" y="320" as="targetPoint"/></mxGeometry></mxCell><mxCell id="78" value="Extends" style="endArrow=block;endSize=16;endFill=0;html=1;rounded=0;exitX=0.5;exitY=0;exitDx=0;exitDy=0;entryX=0.5;entryY=1;entryDx=0;entryDy=0;" edge="1" parent="1" source="74" target="73"><mxGeometry width="160" relative="1" as="geometry"><mxPoint x="-885" y="230" as="sourcePoint"/><mxPoint x="-725" y="230" as="targetPoint"/></mxGeometry></mxCell><mxCell id="79" value="Extends" style="endArrow=block;endSize=16;endFill=0;html=1;rounded=0;exitX=0.5;exitY=0;exitDx=0;exitDy=0;entryX=0.5;entryY=1;entryDx=0;entryDy=0;" edge="1" parent="1"><mxGeometry width="160" relative="1" as="geometry"><mxPoint x="-1001.75" y="390" as="sourcePoint"/><mxPoint x="-1001.75" y="330" as="targetPoint"/></mxGeometry></mxCell><mxCell id="80" value="Use" style="endArrow=open;endSize=12;dashed=1;html=1;rounded=0;exitX=1;exitY=0.5;exitDx=0;exitDy=0;" edge="1" parent="1"><mxGeometry width="160" relative="1" as="geometry"><mxPoint x="-1231.25" y="304.5" as="sourcePoint"/><mxPoint x="-1105" y="305" as="targetPoint"/></mxGeometry></mxCell><mxCell id="81" value="Use" style="endArrow=open;endSize=12;dashed=1;html=1;rounded=0;exitX=1;exitY=0.5;exitDx=0;exitDy=0;entryX=0;entryY=0.5;entryDx=0;entryDy=0;" edge="1" parent="1" source="74" target="19"><mxGeometry width="160" relative="1" as="geometry"><mxPoint x="-610" y="494.5" as="sourcePoint"/><mxPoint x="-483.75" y="495" as="targetPoint"/><Array as="points"><mxPoint x="-720" y="305"/><mxPoint x="-720" y="405"/></Array></mxGeometry></mxCell><mxCell id="82" value="&lt;div style=&quot;font-family: &amp;quot;DejaVu Sans Mono&amp;quot;, monospace; font-size: 12pt;&quot;&gt;&lt;pre style=&quot;&quot;&gt;&lt;font style=&quot;background-color: rgb(255, 255, 255);&quot;&gt;资源加载&lt;/font&gt;&lt;/pre&gt;&lt;/div&gt;" style="text;html=1;align=center;verticalAlign=middle;resizable=0;points=[];autosize=1;strokeColor=none;fillColor=none;" vertex="1" parent="1"><mxGeometry x="-1607" y="40" width="90" height="60" as="geometry"/></mxCell><mxCell id="83" value="" style="endArrow=none;dashed=1;html=1;rounded=0;" edge="1" parent="1"><mxGeometry width="50" height="50" relative="1" as="geometry"><mxPoint x="-1193.5" y="530" as="sourcePoint"/><mxPoint x="-1193.5" y="80" as="targetPoint"/></mxGeometry></mxCell><mxCell id="84" value="&lt;div style=&quot;font-family: &amp;quot;DejaVu Sans Mono&amp;quot;, monospace; font-size: 12pt;&quot;&gt;&lt;pre style=&quot;&quot;&gt;&lt;font style=&quot;background-color: rgb(255, 255, 255);&quot;&gt;资源&lt;/font&gt;解析&lt;/pre&gt;&lt;/div&gt;" style="text;html=1;align=center;verticalAlign=middle;resizable=0;points=[];autosize=1;strokeColor=none;fillColor=none;" vertex="1" parent="1"><mxGeometry x="-1040" y="40" width="90" height="60" as="geometry"/></mxCell><mxCell id="86" value="&lt;br&gt;«interface»&lt;br&gt;&lt;b&gt;ListableBeanFactory&lt;br&gt;&lt;br&gt;&lt;/b&gt;" style="html=1;" vertex="1" parent="1"><mxGeometry x="30" y="190" width="130" height="50" as="geometry"/></mxCell><mxCell id="87" value="&lt;br&gt;«interface»&lt;br&gt;&lt;b&gt;HierarchicaBeanFactory&lt;br&gt;&lt;br&gt;&lt;/b&gt;" style="html=1;" vertex="1" parent="1"><mxGeometry x="220" y="190" width="150" height="50" as="geometry"/></mxCell><mxCell id="88" value="&lt;br&gt;«interface»&lt;br&gt;&lt;b&gt;AutowireCapableBeanFacotry&lt;br&gt;&lt;br&gt;&lt;/b&gt;" style="html=1;" vertex="1" parent="1"><mxGeometry x="414" y="190" width="180" height="50" as="geometry"/></mxCell><mxCell id="89" value="Extends" style="endArrow=block;endSize=16;endFill=0;html=1;rounded=0;entryX=0.496;entryY=1;entryDx=0;entryDy=0;exitX=0.727;exitY=0;exitDx=0;exitDy=0;exitPerimeter=0;entryPerimeter=0;" edge="1" parent="1" target="3"><mxGeometry width="160" relative="1" as="geometry"><mxPoint x="294.4100000000001" y="190" as="sourcePoint"/><mxPoint x="294.53" y="130" as="targetPoint"/></mxGeometry></mxCell><mxCell id="90" value="" style="endArrow=none;html=1;rounded=0;fontColor=#000000;entryX=0.5;entryY=0;entryDx=0;entryDy=0;exitX=0.5;exitY=0;exitDx=0;exitDy=0;" edge="1" parent="1" source="86" target="88"><mxGeometry width="50" height="50" relative="1" as="geometry"><mxPoint x="90" y="180" as="sourcePoint"/><mxPoint x="520" y="160" as="targetPoint"/><Array as="points"><mxPoint x="95" y="160"/><mxPoint x="504" y="160"/></Array></mxGeometry></mxCell><mxCell id="91" value="&lt;br&gt;«interface»&lt;br&gt;&lt;b&gt;ConfigurableBeanFactory&lt;br&gt;&lt;br&gt;&lt;/b&gt;" style="html=1;" vertex="1" parent="1"><mxGeometry x="210" y="290" width="180" height="50" as="geometry"/></mxCell><mxCell id="92" value="Extends" style="endArrow=block;endSize=16;endFill=0;html=1;rounded=0;entryX=0.5;entryY=1;entryDx=0;entryDy=0;" edge="1" parent="1"><mxGeometry width="160" relative="1" as="geometry"><mxPoint x="295" y="290" as="sourcePoint"/><mxPoint x="294.53" y="240" as="targetPoint"/></mxGeometry></mxCell><mxCell id="93" value="&lt;br&gt;«interface»&lt;br&gt;&lt;b&gt;ConfigurableListableBeanFactory&lt;br&gt;&lt;br&gt;&lt;/b&gt;" style="html=1;" vertex="1" parent="1"><mxGeometry x="192.5" y="390" width="205" height="50" as="geometry"/></mxCell><mxCell id="94" value="Extends" style="endArrow=block;endSize=16;endFill=0;html=1;rounded=0;entryX=0.496;entryY=1;entryDx=0;entryDy=0;entryPerimeter=0;" edge="1" parent="1"><mxGeometry width="160" relative="1" as="geometry"><mxPoint x="294.85" y="390" as="sourcePoint"/><mxPoint x="294.40999999999997" y="340" as="targetPoint"/></mxGeometry></mxCell><mxCell id="96" value="Extends" style="endArrow=block;endSize=16;endFill=0;html=1;rounded=0;entryX=0.5;entryY=1;entryDx=0;entryDy=0;exitX=0;exitY=0.5;exitDx=0;exitDy=0;" edge="1" parent="1" source="93"><mxGeometry width="160" relative="1" as="geometry"><mxPoint x="-200" y="295" as="sourcePoint"/><mxPoint x="100" y="240" as="targetPoint"/><Array as="points"><mxPoint x="100" y="415"/></Array></mxGeometry></mxCell><mxCell id="97" value="Extends" style="endArrow=block;endSize=16;endFill=0;html=1;rounded=0;entryX=0.5;entryY=1;entryDx=0;entryDy=0;exitX=1;exitY=0.5;exitDx=0;exitDy=0;" edge="1" parent="1" source="93"><mxGeometry x="0.0957" width="160" relative="1" as="geometry"><mxPoint x="602.5" y="415" as="sourcePoint"/><mxPoint x="510" y="240" as="targetPoint"/><Array as="points"><mxPoint x="510" y="415"/></Array><mxPoint as="offset"/></mxGeometry></mxCell></root></mxGraphModel></diagram></mxfile>